<svg width="24" height="24" viewBox="0 0 54 54" fill="none" xmlns="http://www.w3.org/2000/svg">
<g clip-path="url(#clip0_1_211)">
<path d="M0 0C14.7276 -1.28753e-06 26.667 11.9394 26.667 26.667C26.6668 41.3944 14.7275 53.333 0 53.333V36C5.15454 36 9.3338 31.8215 9.33398 26.667C9.33398 21.5123 5.15466 17.333 0 17.333V0Z" fill="#181450"/>
<path d="M53.334 0C53.334 14.7276 41.3946 26.667 26.667 26.667V9.33398C31.6606 9.33398 35.7384 5.41198 35.9883 0.480469L36.001 0H53.334Z" fill="#181450"/>
<path d="M26.667 26.667H53.3337V53.3337C38.6061 53.3337 26.667 41.3946 26.667 26.667Z" fill="#181450"/>
</g>
<defs>
<clipPath id="clip0_1_211">
<rect width="53.334" height="53.3337" fill="white"/>
</clipPath>
</defs>
</svg>
